<svg width="14" height="13" viewBox="0 0 14 13" fill="none" xmlns="http://www.w3.org/2000/svg">
<path d="M13.1702 10.0278C13.1314 9.73501 12.9621 9.48258 12.7059 9.33525L9.69609 7.60468C9.32747 7.39272 8.85982 7.45443 8.55893 7.75488L7.9661 8.34691C7.80834 8.50448 7.55876 8.51842 7.38567 8.3793C6.91831 8.00375 6.45815 7.59044 6.01798 7.15084C5.57781 6.71127 5.16394 6.25176 4.78786 5.78501C4.64855 5.61212 4.66249 5.36291 4.82029 5.20534L5.4131 4.61331C5.71396 4.31288 5.77583 3.84592 5.56353 3.47771L3.83061 0.472001C3.68305 0.216074 3.43031 0.0470873 3.13715 0.00835353C2.84396 -0.0304592 2.55588 0.067191 2.34677 0.276017L1.4535 1.1681C0.830043 1.79074 0.82003 2.92965 1.4253 4.37509C2.00731 5.76493 3.09343 7.29491 4.48355 8.6832C5.87372 10.0715 7.40578 11.1561 8.79753 11.7373C9.50999 12.0349 10.148 12.1835 10.6867 12.1835C11.2424 12.1835 11.6923 12.0253 12.0089 11.7091L12.9021 10.8171C13.1112 10.6082 13.2089 10.3205 13.1702 10.0278ZM9.4989 7.94673L12.5087 9.6773C12.6575 9.76288 12.7558 9.9095 12.7783 10.0795C12.7972 10.2222 12.7601 10.3628 12.676 10.476L8.67598 8.19621L8.83842 8.03399C9.01314 7.8595 9.28481 7.82363 9.4989 7.94673ZM3.08529 0.399665C3.25559 0.422163 3.40238 0.520313 3.48807 0.66896L5.22099 3.67467C5.3443 3.88852 5.30836 4.15976 5.13364 4.33422L4.98442 4.48324L2.68902 0.501894C2.78285 0.432504 2.89507 0.394823 3.01206 0.394823C3.03633 0.394823 3.06081 0.396428 3.08529 0.399665ZM11.7293 11.43C11.234 11.9247 10.221 11.9039 8.95001 11.3731C7.60461 10.8113 6.11769 9.75685 4.76306 8.40409C3.40844 7.0513 2.35256 5.56636 1.78995 4.22281C1.25841 2.95352 1.23767 1.94186 1.73298 1.44719L2.39612 0.784924L4.69497 4.77229L4.5408 4.92626C4.24003 5.22665 4.21383 5.7022 4.47991 6.03249C4.86485 6.51024 5.28831 6.98041 5.73846 7.42995C6.18867 7.87952 6.65948 8.30241 7.13786 8.68683C7.46854 8.95255 7.94473 8.92642 8.24559 8.62599L8.38624 8.48553L12.3918 10.7685L11.7293 11.43Z" fill="white"/>
</svg>
